<?xml version="1.0" standalone="no"?>
<!DOCTYPE svg PUBLIC "-//W3C//DTD SVG 20010904//EN"
 "http://www.w3.org/TR/2001/REC-SVG-20010904/DTD/svg10.dtd">
<svg version="1.0" xmlns="http://www.w3.org/2000/svg"
 width="320.000000pt" height="320.000000pt" viewBox="0 0 320.000000 320.000000"
 preserveAspectRatio="xMidYMid meet">
<metadata>
Created by potrace 1.11, written by Peter Selinger 2001-2013
</metadata>
<g transform="translate(0.000000,320.000000) scale(0.100000,-0.100000)"
fill="#000000" stroke="none">
<path d="M815 2788 c-40 -108 -815 -2365 -815 -2374 0 -12 187 -14 1192 -12
l1191 3 409 1184 c224 652 408 1191 408 1198 0 19 -2378 19 -2385 1z m2255
-260 c-44 -128 -223 -649 -399 -1158 l-318 -925 -1153 -3 c-920 -2 -1151 0
-1147 10 2 7 54 157 115 333 487 1409 671 1942 677 1958 7 16 71 17 1156 17
l1149 0 -80 -232z"/>
<path d="M970 2517 c0 -2 -61 -181 -135 -397 -75 -217 -133 -400 -131 -407 4
-10 84 -13 405 -13 371 0 399 1 406 18 34 85 265 768 265 783 0 18 -14 19
-405 19 -223 0 -405 -2 -405 -3z m760 -43 c0 -5 -193 -567 -240 -701 l-12 -33
-365 0 c-288 0 -364 3 -360 13 2 6 60 173 127 370 l124 357 363 0 c200 0 363
-3 363 -6z"/>
<path d="M2025 2510 c-21 -34 -275 -794 -268 -801 5 -5 189 -8 408 -7 l400 3
137 399 c76 219 135 402 132 407 -8 13 -801 12 -809 -1z"/>
<path d="M599 1433 c-58 -151 -267 -779 -261 -785 5 -5 188 -7 408 -6 l399 3
137 395 c98 283 133 399 126 408 -8 9 -101 12 -404 12 l-394 0 -11 -27z m760
-35 c0 -7 -55 -170 -122 -363 l-122 -350 -366 -3 -366 -2 126 365 126 365 362
0 c284 0 363 -3 362 -12z"/>
<path d="M1662 1447 c-14 -16 -272 -765 -272 -789 0 -17 21 -18 404 -18 l403
0 138 399 c75 220 134 404 130 410 -10 17 -789 15 -803 -2z m709 -174 c-27
-76 -83 -240 -126 -365 l-79 -228 -363 0 c-200 0 -363 3 -363 6 0 6 219 643
239 697 l11 27 364 0 365 0 -48 -137z"/>
</g>
</svg>
