/* XPM */
static char*brkcond[]={
"14 14 3 1",
"a c #0000ff",
". c None",
"# c #ffffff",
"..###.........",
".#aaa#........",
"#aa#aa#.......",
".###aa#.......",
"..#aa#........",
".#aa#.........",
"..##..........",
".#aa#.........",
"..##..........",
"..............",
"..............",
"..............",
"..............",
".............."};
