/* XPM */
static char * brkdis_xpm[] = {
"14 14 4 1",
" 	c None",
".	c white",
"X	c #BE8383",
"o	c #D2A9A9",
"              ",
"     ....     ",
"    .XXXX.    ",
"   .XooooX.   ",
"  .XooooooX.  ",
" .XooooooooX. ",
" .XooooooooX. ",
" .XooooooooX. ",
" .XooooooooX. ",
"  .XooooooX.  ",
"   .XooooX.   ",
"    .XXXX.    ",
"     ....     ",
"              "};
