/* XPM */
static char * brkdis_xpm[] = {
"14 14 4 1",
" 	s None	c None",
".	c white",
"X	c dark red",
"o	c red",
"              ",
"     ....     ",
"    .XXXX.    ",
"   .XooooX.   ",
"  .Xo....oX.  ",
" .Xo.    .oX. ",
" .Xo.    .oX. ",
" .Xo.    .oX. ",
" .Xo.    .oX. ",
"  .Xo....oX.  ",
"   .XooooX.   ",
"    .XXXX.    ",
"     ....     ",
"              "};
