/* XPM */
static char * brkorph_xpm[] = {
"14 14 2 1",
" 	c None",
".	c #563131",
"              ",
"              ",
"              ",
"              ",
"              ",
"              ",
"              ",
"    ..   ..   ",
"    ... ...   ",
"     .....    ",
"      ...     ",
"     .....    ",
"    ... ...   ",
"    ..   ..   "};
