/* XPM */
static char * brkpt_xpm[] = {
"22 22 3 1",
" 	c None",
".	c #8B0000",
"+	c #FFFFFF",
"                      ",
"                      ",
"                      ",
"                      ",
"       .......        ",
"      .........       ",
"     ...........      ",
"    .............     ",
"   ..+.+++.+..++..    ",
"   .+.+.+.+.+.+.+.    ",
"   .+...+.+.+.+.+.    ",
"   ..+..+.+.+.++..    ",
"   ...+.+.+.+.+...    ",
"   .+.+.+.+.+.+...    ",
"   ..+..+..+..+...    ",
"    .............     ",
"     ...........      ",
"      .........       ",
"       .......        ",
"                      ",
"                      ",
"                      "};
