/* XPM */
static char*execopen[]={
"22 22 9 1",
"d c #808080",
"a c #c3c3c3",
"g c #c0c0c0",
"# c #000000",
"e c #303030",
". c None",
"b c #585858",
"f c #dcdcdc",
"c c #ffffff",
"......................",
"......................",
"............####......",
".......abb.....##.#...",
"......abccb.....###...",
"....abbbccbbb...###...",
"....bccccccccb.####...",
"....bcccdecccb........",
"....#bccdeccb##.......",
"....#bccccccbc#.......",
"....dcc##########.....",
"....#dc#ffgggggd#.....",
"....#f#ffgfgggd#......",
"....#f#ffgggdgd#......",
"....##ffgfgggd#.......",
"....##ffgggdgd#.......",
"....#dddddddd#........",
"....##########........",
"......................",
"......................",
"......................",
"......................"};
