/* XPM */
static char*kdbg[]={
"32 32 4 1",
"b c #008000",
"a c #000000",
". c None",
"# c #ff0000",
"................................",
"................................",
"................................",
"................................",
"................................",
".............................##.",
"..##........................##..",
"..##.......aaa.............##...",
"...##.....aabbaa...aaaa...##....",
"....###...abbbba..abbbba.###....",
".....###..abbbbaaaabbbba.##.....",
"...aaa##...abbaaabbbbba###......",
".....aa###..aaaaaabbbb###.......",
"......aa##..aaaaaaabaa##........",
"........a###aaaaaaaa.##.aaaaaa..",
"..........##aaaaaaaa###aaaaaaaa.",
"...........##aaaaaaa##aa........",
"...........a##aaaaa##aa.........",
"...........aa##aaa##aa..........",
"........aaaaaa##a##aaa..........",
".....aaaaaaaaa####aaaaaaaaaa....",
"...aaaaa...aaaa###aaaaaaaaaaaaa.",
"...a.......aaaa###aaaa......aaa.",
"............a######aaa..........",
"............###aaa#aaa..........",
"............##aaaa##aaa.........",
"..........a##aaaaa##aaaaa.......",
".......aaa##.aaaaaa##aaaaaa.....",
".....aaaa##....aaa.##....aaaa...",
".....aaa##..........##....aaa...",
".......###..........###.........",
".....##.#............##........."};
