/* XPM */
static char * kdbg_xpm[] = {
"32 32 29 1",
" 	c None",
".	c #000000",
"+	c #FF0000",
"@	c #023706",
"#	c #023C06",
"$	c #034107",
"%	c #035209",
"&	c #045A0A",
"*	c #056B0C",
"=	c #05770D",
"-	c #069610",
";	c #161E0A",
">	c #141D09",
",	c #060302",
"'	c #0C0705",
")	c #1A0F0B",
"!	c #25150F",
"~	c #22130E",
"{	c #0E0806",
"]	c #1F120D",
"^	c #382017",
"/	c #3B2218",
"(	c #2E1A13",
"_	c #3F241A",
":	c #522F22",
"<	c #4C2C20",
"[	c #5F3627",
"}	c #683C2B",
"|	c #7F4835",
"                                ",
"                                ",
"                                ",
"                                ",
"           ...    ...           ",
"   +      .@#@.  .@#@.      +   ",
"    +    .$%&%$..$%&%$.    +    ",
"     +   .%*=*%@@%*=*%.   +     ",
"      +  .&=-++++++-=&.  +      ",
"       + .%++......++%. +       ",
"        +.+;........>+.+        ",
"    ..   +............+   ..    ",
"   .....+ +.,'++++...+ +.....   ",
" ...   +...+)+!~){+.+...+   ... ",
" .     + .{]+^/^(]{+... +     . ",
"      +  .)+_+:<_(+,+..  +      ",
"      +  .+^<[+[<+~'.+.  +      ",
"    ..+. .+/:}|}:/!{.+. .+..    ",
"   .. +...+^<[}[<^~'.+...+ ..   ",
"  ..  +  .+(_<+<_+),.+.  +  ..  ",
" ..   +  .{+(+/^(]+.+..  +   .. ",
" .     + ..{+~!~){.+... +     . ",
"       +...+,+{',.+.+...+       ",
"     ...+ +...++++...+ +...     ",
"    ..   +............+   ..    ",
"    .   + +..........+ +   .    ",
"    .  +   ++......++   +  .    ",
"   .. +     .++++++.     + ..   ",
"   . +        ....        + .   ",
"  ..+                      +..  ",
"  .+                        +.  ",
"                                "};
