/* XPM */
static char*mini[]={
"14 14 4 1",
"a c #008000",
"b c #000000",
". c None",
"# c #ff0000",
".............#",
".#..........##",
"..#.aa..aa..#.",
"..#.aa..aa.##b",
"bbb#.aaaa..#b.",
"...b#bbbb.#...",
"....b#bbb#....",
"....bb#b##b...",
"bbbbbbb#bbbbbb",
"....bb##bbb...",
".....b###b....",
"..bbb#bb#bb...",
".bb.#.bbb#.b..",
"b..#...bb##.bb"};
