/* XPM */
static char * pcup_xpm[] = {
"14 8 3 1",
" 	c None",
".	c #FFFFFF",
"+	c #006400",
" ......       ",
" .+++++...    ",
" .++++++++..  ",
" .++....++++. ",
" .++....++++. ",
" .++++++++..  ",
" .+++++....   ",
" ......       "};
