/* XPM */
static char * pgmstepi_xpm[] = {
"22 22 4 1",
" 	c None",
".	c #8B0000",
"+	c #000000",
"@	c #000080",
"                      ",
"                      ",
"   .......            ",
"   ........           ",
"         ...          ",
"          ..          ",
"        ......        ",
"         ....         ",
"       ++ .. ++       ",
"      ++      ++      ",
"      ++  @@  ++      ",
"      ++  @@  ++      ",
"     ++        ++     ",
"    ++    @@    ++    ",
"     ++   @@   ++     ",
"      ++  @@  ++      ",
"      ++  @@  ++      ",
"      ++  @@  ++      ",
"       ++ @@ ++       ",
"                      ",
"                      ",
"                      "};
