<?xml version="1.0" encoding="UTF-8" standalone="no"?>
<!-- Created with Inkscape (http://www.inkscape.org/) -->

<svg
   xmlns:dc="http://purl.org/dc/elements/1.1/"
   xmlns:cc="http://creativecommons.org/ns#"
   xmlns:rdf="http://www.w3.org/1999/02/22-rdf-syntax-ns#"
   xmlns:svg="http://www.w3.org/2000/svg"
   xmlns="http://www.w3.org/2000/svg"
   xmlns:xlink="http://www.w3.org/1999/xlink"
   xmlns:sodipodi="http://sodipodi.sourceforge.net/DTD/sodipodi-0.dtd"
   xmlns:inkscape="http://www.inkscape.org/namespaces/inkscape"
   sodipodi:docname="sc-apps-kdbg.svg"
   inkscape:version="0.91 r13725"
   version="1.1"
   id="svg5601"
   viewBox="0 0 128 128"
   height="128"
   width="128"
   inkscape:export-xdpi="90"
   inkscape:export-ydpi="90">
  <defs
     id="defs5603">
    <linearGradient
       inkscape:collect="always"
       id="linearGradient4207">
      <stop
         style="stop-color:#e2ddc7;stop-opacity:1"
         offset="0"
         id="stop4209" />
      <stop
         id="stop4285"
         offset="0.64553922"
         style="stop-color:#eae5ce;stop-opacity:1;" />
      <stop
         style="stop-color:#f3eed6;stop-opacity:1"
         offset="1"
         id="stop4211" />
    </linearGradient>
    <linearGradient
       inkscape:collect="always"
       xlink:href="#linearGradient4207"
       id="linearGradient4213"
       x1="668.21429"
       y1="347.36218"
       x2="668.21423"
       y2="661.64789"
       gradientUnits="userSpaceOnUse"
       gradientTransform="matrix(0.30236067,0,-0.10495278,0.30427927,-85.566564,835.28661)" />
  </defs>
  <sodipodi:namedview
     showguides="true"
     inkscape:window-maximized="1"
     inkscape:window-y="0"
     inkscape:window-x="0"
     inkscape:window-height="1135"
     inkscape:window-width="1920"
     showgrid="true"
     inkscape:current-layer="layer1"
     inkscape:document-units="px"
     inkscape:cy="70.523756"
     inkscape:cx="55.887169"
     inkscape:zoom="7.0260398"
     inkscape:pageshadow="2"
     inkscape:pageopacity="0.0"
     borderopacity="1.0"
     bordercolor="#666666"
     pagecolor="#ffffff"
     id="base"
     units="px"
     borderlayer="false"
     width="128px"
     inkscape:guide-bbox="true"
     objecttolerance="20"
     gridtolerance="10"
     inkscape:snap-perpendicular="false">
    <inkscape:grid
       type="xygrid"
       id="grid4283"
       spacingx="4"
       spacingy="4"
       empspacing="4" />
  </sodipodi:namedview>
  <metadata
     id="metadata5606">
    <rdf:RDF>
      <cc:Work
         rdf:about="">
        <dc:format>image/svg+xml</dc:format>
        <dc:type
           rdf:resource="http://purl.org/dc/dcmitype/StillImage" />
        <dc:title></dc:title>
      </cc:Work>
    </rdf:RDF>
  </metadata>
  <g
     inkscape:label="Ebene 1"
     inkscape:groupmode="layer"
     id="layer1"
     transform="translate(0,-924.3622)">
    <rect
       style="opacity:1;fill:#b3000a;fill-opacity:1;fill-rule:evenodd;stroke:none;stroke-width:1;stroke-linecap:round;stroke-linejoin:miter;stroke-miterlimit:4;stroke-dasharray:none;stroke-opacity:1"
       id="rect4295"
       width="40.386742"
       height="42.992767"
       x="405.77209"
       y="1002.7412"
       transform="matrix(1,0,-0.32607089,0.94534532,0,0)" />
    <path
       style="opacity:1;fill:url(#linearGradient4213);fill-opacity:1;stroke:#8b7e5b;stroke-width:1.50000012;stroke-linecap:round;stroke-linejoin:round;stroke-miterlimit:4;stroke-dasharray:none;stroke-opacity:1"
       d="m 33.135279,941.72076 c -10.795102,31.29718 -21.590202,62.59434 -32.38530914,93.89144 31.30161314,0 62.60322514,0 93.90483814,0 10.865072,-31.5 21.730152,-62.99996 32.595222,-94.5 -31.301617,0 -62.60323,0 -93.904842,0 l -0.104952,0.30429 -0.104957,0.30427 z m 37.361482,10.64978 c -3.578368,10.37441 -7.156737,20.74884 -10.735105,31.12328 -10.3092,0 -20.618397,0 -30.927599,0 3.57837,-10.37444 7.156737,-20.74887 10.735108,-31.12328 10.3092,0 20.618399,0 30.927596,0 z m 42.114349,0 c -3.57836,10.37441 -7.15673,20.74884 -10.7351,31.12328 -10.309003,0 -20.618005,0 -30.92701,0 3.578369,-10.37444 7.156737,-20.74887 10.735107,-31.12328 10.309005,0 20.618003,0 30.927003,0 z m -56.807736,42.59907 c -3.578369,10.37439 -7.156738,20.74869 -10.735108,31.12319 -10.309197,0 -20.618397,0 -30.927599,0 3.57837,-10.3745 7.15674,-20.7488 10.735107,-31.12319 10.309203,0 20.618401,0 30.9276,0 z m 42.114352,0 c -3.578367,10.37439 -7.156738,20.74869 -10.735106,31.12319 -10.309002,0 -20.618005,0 -30.927009,0 3.578369,-10.3745 7.156738,-20.7488 10.735106,-31.12319 10.309006,0 20.618007,0 30.927009,0 z"
       id="rect4171"
       inkscape:connector-curvature="0"
       inkscape:export-xdpi="3.4200001"
       inkscape:export-ydpi="3.4200001" />
  </g>
</svg>
