/* XPM */
static char * watchdis_xpm[] = {
"14 14 5 1",
" 	c None",
".	c #5C5C5C",
"+	c #ADADAD",
"@	c #93C6C6",
"#	c #FFFFFF",
"              ",
"              ",
"   .        . ",
"  . .      . .",
"  . .      . .",
" .  .     .  .",
" .        .   ",
"+... .. ...+  ",
".@#@.  .@#@.  ",
".....  .....  ",
".   .  .   .  ",
"              ",
"              ",
"              "};
