/* XPM */
static const char*watch[]={
"16 16 5 1",
"# c #000000",
"c c #ffffff",
"a c #808080",
". c None",
"b c #00ffff",
"................",
"................",
"................",
".....#..........",
"....#.#.......#.",
"...#..#......#.#",
"..#...#.....#..#",
".#.........#...#",
"a###.##.###a....",
"#bcb#..#bcb#....",
"#cb.#..#cb.#....",
"#b.b#..#b.b#....",
"#.b.#..#.b.#....",
".###....###.....",
"................",
"................"};
