/* XPM */
static char * watchcoded_xpm[] = {
"16 16 7 1",
" 	c None",
".	c #000000",
"+	c #B5B5B5",
"@	c #FFFFFF",
"#	c #808080",
"$	c #00FFFF",
"%	c #B5FFFF",
"                ",
"                ",
"                ",
"     .          ",
"    +@+       . ",
"   +...@     . .",
"  +..@..@@@ +@ .",
" .@.@ @.@..+..@.",
"#.+.@.+.++...@  ",
".$@.+ @.%@%.@   ",
".@%..@..@%.+.@  ",
".$ %...+%..+..@ ",
". $ +@@. %@.@@  ",
" ...    ...     ",
"                ",
"                "};
