/* XPM */
static char * watchena_xpm[] = {
"14 14 5 1",
" 	c None",
".	c #000000",
"+	c #808080",
"@	c #00FFFF",
"#	c #FFFFFF",
"              ",
"              ",
"   .        . ",
"  . .      . .",
"  . .      . .",
" .  .     .  .",
" .        .   ",
"+... .. ...+  ",
".@#@.  .@#@.  ",
".#@+.  .#@+.  ",
".@+@.  .@+@.  ",
".+@+.  .+@+.  ",
" ...    ...   ",
"              "};
