/* XPM */
static char * red_bullet_xpm[] = {
/* width height num_colors chars_per_pixel */
"12 12 5 1",
/* colors */
" 	s None	c None",
".	c red",
"X	c #800000",
"o	c white",
"O	c #808080",
/* pixels */
"            ",
"            ",
"            ",
"    ..X     ",
"   .oX.XO   ",
"   .X.XXO   ",
"   X.XXXO   ",
"    XXXO    ",
"    OOO     ",
"            ",
"            ",
"            "};
